<mxfile host="app.diagrams.net" modified="2022-07-10T02:16:02.393Z" agent="5.0 (Windows NT 10.0; Win64; x64) AppleWebKit/537.36 (KHTML, like Gecko) Chrome/102.0.5005.115 Safari/537.36 OPR/88.0.4412.75" etag="aYqwtvZK3qVY8GkJRVQq" version="20.0.4" type="github">
  <diagram id="2XjKo7G8cihlhJ6fSeie" name="Page-1">
    <mxGraphModel dx="1513" dy="849" grid="1" gridSize="10" guides="1" tooltips="1" connect="1" arrows="1" fold="1" page="1" pageScale="1" pageWidth="3300" pageHeight="2339" math="0" shadow="0">
      <root>
        <mxCell id="0" />
        <mxCell id="1" parent="0" />
        <mxCell id="OGwEZDKvqWSoJGv5Ddzu-1" value="update" style="rounded=1;whiteSpace=wrap;html=1;verticalAlign=top;align=left;arcSize=2;" parent="1" vertex="1">
          <mxGeometry x="1090" y="870" width="950" height="400" as="geometry" />
        </mxCell>
        <mxCell id="OGwEZDKvqWSoJGv5Ddzu-4" value="" style="rhombus;whiteSpace=wrap;html=1;" parent="1" vertex="1">
          <mxGeometry x="1230" y="1130" width="30" height="30" as="geometry" />
        </mxCell>
        <mxCell id="OGwEZDKvqWSoJGv5Ddzu-6" value="draw" style="shape=mxgraph.uml25.behaviorAction;html=1;rounded=1;absoluteArcSize=1;arcSize=10;align=left;spacingLeft=5;" parent="1" vertex="1">
          <mxGeometry x="1515" y="890" width="100" height="50" as="geometry" />
        </mxCell>
        <mxCell id="OGwEZDKvqWSoJGv5Ddzu-48" style="edgeStyle=orthogonalEdgeStyle;rounded=0;orthogonalLoop=1;jettySize=auto;html=1;entryX=0;entryY=0.45;entryDx=0;entryDy=0;entryPerimeter=0;" parent="1" source="OGwEZDKvqWSoJGv5Ddzu-11" target="OGwEZDKvqWSoJGv5Ddzu-25" edge="1">
          <mxGeometry relative="1" as="geometry" />
        </mxCell>
        <mxCell id="OGwEZDKvqWSoJGv5Ddzu-11" value="surf" style="shape=mxgraph.uml25.behaviorAction;html=1;rounded=1;absoluteArcSize=1;arcSize=10;align=left;spacingLeft=5;" parent="1" vertex="1">
          <mxGeometry x="1415" y="1200" width="100" height="45" as="geometry" />
        </mxCell>
        <mxCell id="OGwEZDKvqWSoJGv5Ddzu-51" style="edgeStyle=orthogonalEdgeStyle;rounded=0;orthogonalLoop=1;jettySize=auto;html=1;entryX=-0.017;entryY=0.505;entryDx=0;entryDy=0;entryPerimeter=0;" parent="1" source="OGwEZDKvqWSoJGv5Ddzu-14" target="OGwEZDKvqWSoJGv5Ddzu-19" edge="1">
          <mxGeometry relative="1" as="geometry" />
        </mxCell>
        <mxCell id="OGwEZDKvqWSoJGv5Ddzu-14" value="backflip" style="shape=mxgraph.uml25.behaviorAction;html=1;rounded=1;absoluteArcSize=1;arcSize=10;align=left;spacingLeft=5;" parent="1" vertex="1">
          <mxGeometry x="1410" y="960" width="110" height="50" as="geometry" />
        </mxCell>
        <mxCell id="OGwEZDKvqWSoJGv5Ddzu-50" style="edgeStyle=orthogonalEdgeStyle;rounded=0;orthogonalLoop=1;jettySize=auto;html=1;entryX=-0.041;entryY=0.502;entryDx=0;entryDy=0;entryPerimeter=0;" parent="1" source="OGwEZDKvqWSoJGv5Ddzu-16" target="OGwEZDKvqWSoJGv5Ddzu-20" edge="1">
          <mxGeometry relative="1" as="geometry" />
        </mxCell>
        <mxCell id="OGwEZDKvqWSoJGv5Ddzu-16" value="walk(this.position)" style="shape=mxgraph.uml25.behaviorAction;html=1;rounded=1;absoluteArcSize=1;arcSize=10;align=left;spacingLeft=5;" parent="1" vertex="1">
          <mxGeometry x="1380" y="1040" width="170" height="50" as="geometry" />
        </mxCell>
        <mxCell id="OGwEZDKvqWSoJGv5Ddzu-17" value="" style="rhombus;whiteSpace=wrap;html=1;" parent="1" vertex="1">
          <mxGeometry x="1850" y="1130" width="30" height="30" as="geometry" />
        </mxCell>
        <mxCell id="OGwEZDKvqWSoJGv5Ddzu-19" value="draw" style="shape=mxgraph.uml25.behaviorAction;html=1;rounded=1;absoluteArcSize=1;arcSize=10;align=left;spacingLeft=5;" parent="1" vertex="1">
          <mxGeometry x="1600" y="960" width="100" height="50" as="geometry" />
        </mxCell>
        <mxCell id="OGwEZDKvqWSoJGv5Ddzu-20" value="draw" style="shape=mxgraph.uml25.behaviorAction;html=1;rounded=1;absoluteArcSize=1;arcSize=10;align=left;spacingLeft=5;" parent="1" vertex="1">
          <mxGeometry x="1600" y="1040" width="100" height="50" as="geometry" />
        </mxCell>
        <mxCell id="OGwEZDKvqWSoJGv5Ddzu-21" value="draw" style="shape=mxgraph.uml25.behaviorAction;html=1;rounded=1;absoluteArcSize=1;arcSize=10;align=left;spacingLeft=5;" parent="1" vertex="1">
          <mxGeometry x="1600" y="1120" width="100" height="50" as="geometry" />
        </mxCell>
        <mxCell id="OGwEZDKvqWSoJGv5Ddzu-49" style="edgeStyle=orthogonalEdgeStyle;rounded=0;orthogonalLoop=1;jettySize=auto;html=1;entryX=-0.033;entryY=0.483;entryDx=0;entryDy=0;entryPerimeter=0;" parent="1" source="OGwEZDKvqWSoJGv5Ddzu-22" target="OGwEZDKvqWSoJGv5Ddzu-21" edge="1">
          <mxGeometry relative="1" as="geometry" />
        </mxCell>
        <mxCell id="OGwEZDKvqWSoJGv5Ddzu-22" value="walk(this.surfPos)" style="shape=mxgraph.uml25.behaviorAction;html=1;rounded=1;absoluteArcSize=1;arcSize=10;align=left;spacingLeft=5;" parent="1" vertex="1">
          <mxGeometry x="1380" y="1120" width="170" height="50" as="geometry" />
        </mxCell>
        <mxCell id="OGwEZDKvqWSoJGv5Ddzu-25" value="draw" style="shape=mxgraph.uml25.behaviorAction;html=1;rounded=1;absoluteArcSize=1;arcSize=10;align=left;spacingLeft=5;" parent="1" vertex="1">
          <mxGeometry x="1600" y="1200" width="100" height="50" as="geometry" />
        </mxCell>
        <mxCell id="OGwEZDKvqWSoJGv5Ddzu-30" value="" style="endArrow=classic;html=1;rounded=0;exitX=0.5;exitY=0;exitDx=0;exitDy=0;entryX=-0.038;entryY=0.534;entryDx=0;entryDy=0;entryPerimeter=0;" parent="1" source="OGwEZDKvqWSoJGv5Ddzu-4" target="OGwEZDKvqWSoJGv5Ddzu-6" edge="1">
          <mxGeometry width="50" height="50" relative="1" as="geometry">
            <mxPoint x="1570" y="1110" as="sourcePoint" />
            <mxPoint x="1620" y="1060" as="targetPoint" />
            <Array as="points">
              <mxPoint x="1360" y="960" />
            </Array>
          </mxGeometry>
        </mxCell>
        <mxCell id="OGwEZDKvqWSoJGv5Ddzu-32" value="" style="endArrow=classic;html=1;rounded=0;exitX=1;exitY=0.5;exitDx=0;exitDy=0;entryX=0;entryY=0.5;entryDx=0;entryDy=0;entryPerimeter=0;" parent="1" source="OGwEZDKvqWSoJGv5Ddzu-4" target="OGwEZDKvqWSoJGv5Ddzu-22" edge="1">
          <mxGeometry width="50" height="50" relative="1" as="geometry">
            <mxPoint x="1570" y="1110" as="sourcePoint" />
            <mxPoint x="1350" y="1145" as="targetPoint" />
          </mxGeometry>
        </mxCell>
        <mxCell id="OGwEZDKvqWSoJGv5Ddzu-33" value="" style="endArrow=classic;html=1;rounded=0;exitX=0.823;exitY=0.325;exitDx=0;exitDy=0;entryX=-0.022;entryY=0.512;entryDx=0;entryDy=0;entryPerimeter=0;exitPerimeter=0;" parent="1" source="OGwEZDKvqWSoJGv5Ddzu-4" target="OGwEZDKvqWSoJGv5Ddzu-16" edge="1">
          <mxGeometry width="50" height="50" relative="1" as="geometry">
            <mxPoint x="1390" y="1130" as="sourcePoint" />
            <mxPoint x="1440" y="1080" as="targetPoint" />
          </mxGeometry>
        </mxCell>
        <mxCell id="OGwEZDKvqWSoJGv5Ddzu-34" value="" style="endArrow=classic;html=1;rounded=0;exitX=0.647;exitY=0.129;exitDx=0;exitDy=0;exitPerimeter=0;entryX=-0.022;entryY=0.497;entryDx=0;entryDy=0;entryPerimeter=0;" parent="1" source="OGwEZDKvqWSoJGv5Ddzu-4" target="OGwEZDKvqWSoJGv5Ddzu-14" edge="1">
          <mxGeometry width="50" height="50" relative="1" as="geometry">
            <mxPoint x="1350" y="1180" as="sourcePoint" />
            <mxPoint x="1400" y="1130" as="targetPoint" />
          </mxGeometry>
        </mxCell>
        <mxCell id="OGwEZDKvqWSoJGv5Ddzu-36" value="" style="endArrow=classic;html=1;rounded=0;exitX=0.92;exitY=0.674;exitDx=0;exitDy=0;exitPerimeter=0;entryX=-0.029;entryY=0.431;entryDx=0;entryDy=0;entryPerimeter=0;" parent="1" source="OGwEZDKvqWSoJGv5Ddzu-4" target="OGwEZDKvqWSoJGv5Ddzu-11" edge="1">
          <mxGeometry width="50" height="50" relative="1" as="geometry">
            <mxPoint x="1300" y="1270" as="sourcePoint" />
            <mxPoint x="1350" y="1220" as="targetPoint" />
          </mxGeometry>
        </mxCell>
        <mxCell id="OGwEZDKvqWSoJGv5Ddzu-39" value="" style="endArrow=classic;html=1;rounded=0;exitX=1;exitY=0.514;exitDx=0;exitDy=0;exitPerimeter=0;entryX=0.5;entryY=0;entryDx=0;entryDy=0;" parent="1" source="OGwEZDKvqWSoJGv5Ddzu-6" target="OGwEZDKvqWSoJGv5Ddzu-17" edge="1">
          <mxGeometry width="50" height="50" relative="1" as="geometry">
            <mxPoint x="1580" y="1070" as="sourcePoint" />
            <mxPoint x="1630" y="1020" as="targetPoint" />
            <Array as="points">
              <mxPoint x="1760" y="960" />
            </Array>
          </mxGeometry>
        </mxCell>
        <mxCell id="OGwEZDKvqWSoJGv5Ddzu-41" value="" style="endArrow=classic;html=1;rounded=0;entryX=0;entryY=0.5;entryDx=0;entryDy=0;exitX=1.026;exitY=0.507;exitDx=0;exitDy=0;exitPerimeter=0;" parent="1" source="OGwEZDKvqWSoJGv5Ddzu-21" target="OGwEZDKvqWSoJGv5Ddzu-17" edge="1">
          <mxGeometry width="50" height="50" relative="1" as="geometry">
            <mxPoint x="1580" y="1170" as="sourcePoint" />
            <mxPoint x="1630" y="1120" as="targetPoint" />
          </mxGeometry>
        </mxCell>
        <mxCell id="OGwEZDKvqWSoJGv5Ddzu-43" value="" style="endArrow=classic;html=1;rounded=0;exitX=1.007;exitY=0.495;exitDx=0;exitDy=0;exitPerimeter=0;entryX=0.105;entryY=0.654;entryDx=0;entryDy=0;entryPerimeter=0;" parent="1" source="OGwEZDKvqWSoJGv5Ddzu-25" target="OGwEZDKvqWSoJGv5Ddzu-17" edge="1">
          <mxGeometry width="50" height="50" relative="1" as="geometry">
            <mxPoint x="1760" y="1200" as="sourcePoint" />
            <mxPoint x="1810" y="1150" as="targetPoint" />
          </mxGeometry>
        </mxCell>
        <mxCell id="OGwEZDKvqWSoJGv5Ddzu-44" value="" style="endArrow=classic;html=1;rounded=0;exitX=1.003;exitY=0.497;exitDx=0;exitDy=0;exitPerimeter=0;entryX=0.1;entryY=0.314;entryDx=0;entryDy=0;entryPerimeter=0;" parent="1" source="OGwEZDKvqWSoJGv5Ddzu-20" target="OGwEZDKvqWSoJGv5Ddzu-17" edge="1">
          <mxGeometry width="50" height="50" relative="1" as="geometry">
            <mxPoint x="1770" y="1070" as="sourcePoint" />
            <mxPoint x="1820" y="1020" as="targetPoint" />
          </mxGeometry>
        </mxCell>
        <mxCell id="OGwEZDKvqWSoJGv5Ddzu-45" value="" style="endArrow=classic;html=1;rounded=0;exitX=1.007;exitY=0.488;exitDx=0;exitDy=0;exitPerimeter=0;entryX=0.282;entryY=0.147;entryDx=0;entryDy=0;entryPerimeter=0;" parent="1" source="OGwEZDKvqWSoJGv5Ddzu-19" target="OGwEZDKvqWSoJGv5Ddzu-17" edge="1">
          <mxGeometry width="50" height="50" relative="1" as="geometry">
            <mxPoint x="1770" y="1070" as="sourcePoint" />
            <mxPoint x="1820" y="1020" as="targetPoint" />
          </mxGeometry>
        </mxCell>
        <mxCell id="OGwEZDKvqWSoJGv5Ddzu-52" value="backflip" style="rounded=1;whiteSpace=wrap;html=1;verticalAlign=top;align=left;" parent="1" vertex="1">
          <mxGeometry x="2120" y="880" width="120" height="60" as="geometry" />
        </mxCell>
        <mxCell id="OGwEZDKvqWSoJGv5Ddzu-53" value="" style="rhombus;whiteSpace=wrap;html=1;" parent="1" vertex="1">
          <mxGeometry x="2290" y="870" width="30" height="30" as="geometry" />
        </mxCell>
        <mxCell id="OGwEZDKvqWSoJGv5Ddzu-54" value="" style="rhombus;whiteSpace=wrap;html=1;" parent="1" vertex="1">
          <mxGeometry x="2290" y="950" width="30" height="30" as="geometry" />
        </mxCell>
        <mxCell id="OGwEZDKvqWSoJGv5Ddzu-55" value="this.action = ACTION.SIT" style="rounded=1;whiteSpace=wrap;html=1;" parent="1" vertex="1">
          <mxGeometry x="2340" y="1050" width="120" height="60" as="geometry" />
        </mxCell>
        <mxCell id="OGwEZDKvqWSoJGv5Ddzu-56" value="this.action = ACTION.GO" style="rounded=1;whiteSpace=wrap;html=1;" parent="1" vertex="1">
          <mxGeometry x="2320" y="1170" width="120" height="60" as="geometry" />
        </mxCell>
        <mxCell id="OGwEZDKvqWSoJGv5Ddzu-57" value="do backflip motion one frame at the time" style="rounded=1;whiteSpace=wrap;html=1;" parent="1" vertex="1">
          <mxGeometry x="2320" y="1260" width="120" height="60" as="geometry" />
        </mxCell>
        <mxCell id="UZs3FFMXvQX2vYewNkwb-9" value="Immoveable" style="swimlane;fontStyle=3;align=center;verticalAlign=top;childLayout=stackLayout;horizontal=1;startSize=26;horizontalStack=0;resizeParent=1;resizeParentMax=0;resizeLast=0;collapsible=1;marginBottom=0;" vertex="1" parent="1">
          <mxGeometry x="1140" y="50" width="170" height="160" as="geometry" />
        </mxCell>
        <mxCell id="UZs3FFMXvQX2vYewNkwb-10" value="position: Vector&#xa;skinColor. RGBColor&#xa;action: ACTION" style="text;strokeColor=none;fillColor=none;align=left;verticalAlign=top;spacingLeft=4;spacingRight=4;overflow=hidden;rotatable=0;points=[[0,0.5],[1,0.5]];portConstraint=eastwest;" vertex="1" parent="UZs3FFMXvQX2vYewNkwb-9">
          <mxGeometry y="26" width="170" height="54" as="geometry" />
        </mxCell>
        <mxCell id="UZs3FFMXvQX2vYewNkwb-11" value="" style="line;strokeWidth=1;fillColor=none;align=left;verticalAlign=middle;spacingTop=-1;spacingLeft=3;spacingRight=3;rotatable=0;labelPosition=right;points=[];portConstraint=eastwest;" vertex="1" parent="UZs3FFMXvQX2vYewNkwb-9">
          <mxGeometry y="80" width="170" height="8" as="geometry" />
        </mxCell>
        <mxCell id="UZs3FFMXvQX2vYewNkwb-12" value="+ constructor(_position: Vector)&lt;br&gt;+ clicked(_hotspot: Vector): boolean&lt;br&gt;+ update(): void&lt;br&gt;&lt;i&gt;# draw(): void&lt;/i&gt;" style="text;strokeColor=none;fillColor=none;align=left;verticalAlign=top;spacingLeft=4;spacingRight=4;overflow=hidden;rotatable=0;points=[[0,0.5],[1,0.5]];portConstraint=eastwest;html=1;" vertex="1" parent="UZs3FFMXvQX2vYewNkwb-9">
          <mxGeometry y="88" width="170" height="72" as="geometry" />
        </mxCell>
        <mxCell id="UZs3FFMXvQX2vYewNkwb-13" value="" style="endArrow=block;endSize=16;endFill=0;html=1;rounded=0;exitX=0.5;exitY=0;exitDx=0;exitDy=0;entryX=0.5;entryY=1.103;entryDx=0;entryDy=0;entryPerimeter=0;" edge="1" parent="1" source="UZs3FFMXvQX2vYewNkwb-14" target="UZs3FFMXvQX2vYewNkwb-12">
          <mxGeometry width="160" relative="1" as="geometry">
            <mxPoint x="1224.9999999999998" y="225.99999999999955" as="sourcePoint" />
            <mxPoint x="1290" y="196" as="targetPoint" />
          </mxGeometry>
        </mxCell>
        <mxCell id="UZs3FFMXvQX2vYewNkwb-14" value="Human" style="swimlane;fontStyle=1;align=center;verticalAlign=top;childLayout=stackLayout;horizontal=1;startSize=26;horizontalStack=0;resizeParent=1;resizeParentMax=0;resizeLast=0;collapsible=1;marginBottom=0;" vertex="1" parent="1">
          <mxGeometry x="1145" y="240" width="160" height="340" as="geometry" />
        </mxCell>
        <mxCell id="UZs3FFMXvQX2vYewNkwb-15" value="headAngle: number&#xa;shoulder: number&#xa;elbow: number&#xa;pelvis: number&#xa;knee: number&#xa;leftHand: number&#xa;rightHand: number&#xa;leftFoot: number&#xa;rightFoot: number&#xa;flipAngle: number&#xa;flipCenter: Vector&#xa;surfPos: Vector&#xa;currentPos: Vector&#xa;walking: boolean" style="text;strokeColor=none;fillColor=none;align=left;verticalAlign=top;spacingLeft=4;spacingRight=4;overflow=hidden;rotatable=0;points=[[0,0.5],[1,0.5]];portConstraint=eastwest;" vertex="1" parent="UZs3FFMXvQX2vYewNkwb-14">
          <mxGeometry y="26" width="160" height="204" as="geometry" />
        </mxCell>
        <mxCell id="UZs3FFMXvQX2vYewNkwb-16" value="" style="line;strokeWidth=1;fillColor=none;align=left;verticalAlign=middle;spacingTop=-1;spacingLeft=3;spacingRight=3;rotatable=0;labelPosition=right;points=[];portConstraint=eastwest;" vertex="1" parent="UZs3FFMXvQX2vYewNkwb-14">
          <mxGeometry y="230" width="160" height="8" as="geometry" />
        </mxCell>
        <mxCell id="UZs3FFMXvQX2vYewNkwb-17" value="+ constructor(_position)&#xa;+ update(): void&#xa;# draw(): void&#xa;- backflip(): void&#xa;- surf(): void&#xa;- walk(_target: Vector): void&#xa;" style="text;strokeColor=none;fillColor=none;align=left;verticalAlign=top;spacingLeft=4;spacingRight=4;overflow=hidden;rotatable=0;points=[[0,0.5],[1,0.5]];portConstraint=eastwest;" vertex="1" parent="UZs3FFMXvQX2vYewNkwb-14">
          <mxGeometry y="238" width="160" height="102" as="geometry" />
        </mxCell>
        <mxCell id="UZs3FFMXvQX2vYewNkwb-25" value="Tree" style="swimlane;fontStyle=1;align=center;verticalAlign=top;childLayout=stackLayout;horizontal=1;startSize=26;horizontalStack=0;resizeParent=1;resizeParentMax=0;resizeLast=0;collapsible=1;marginBottom=0;" vertex="1" parent="1">
          <mxGeometry x="960" y="240" width="160" height="70" as="geometry" />
        </mxCell>
        <mxCell id="UZs3FFMXvQX2vYewNkwb-26" value="" style="line;strokeWidth=1;fillColor=none;align=left;verticalAlign=middle;spacingTop=-1;spacingLeft=3;spacingRight=3;rotatable=0;labelPosition=right;points=[];portConstraint=eastwest;" vertex="1" parent="UZs3FFMXvQX2vYewNkwb-25">
          <mxGeometry y="26" width="160" height="8" as="geometry" />
        </mxCell>
        <mxCell id="UZs3FFMXvQX2vYewNkwb-27" value="+ update(): void&#xa;# draw(): void" style="text;strokeColor=none;fillColor=none;align=left;verticalAlign=top;spacingLeft=4;spacingRight=4;overflow=hidden;rotatable=0;points=[[0,0.5],[1,0.5]];portConstraint=eastwest;" vertex="1" parent="UZs3FFMXvQX2vYewNkwb-25">
          <mxGeometry y="34" width="160" height="36" as="geometry" />
        </mxCell>
        <mxCell id="UZs3FFMXvQX2vYewNkwb-32" value="Ship" style="swimlane;fontStyle=1;align=center;verticalAlign=top;childLayout=stackLayout;horizontal=1;startSize=26;horizontalStack=0;resizeParent=1;resizeParentMax=0;resizeLast=0;collapsible=1;marginBottom=0;strokeWidth=1;fillColor=none;html=1;" vertex="1" parent="1">
          <mxGeometry x="1330" y="226" width="160" height="190" as="geometry" />
        </mxCell>
        <mxCell id="UZs3FFMXvQX2vYewNkwb-33" value="- chimneyOne: Vector&lt;br&gt;- chimneyTwo: Vector&lt;br&gt;- chimneyThree: Vector&lt;br&gt;- chimneys: Vector[]" style="text;strokeColor=none;fillColor=none;align=left;verticalAlign=top;spacingLeft=4;spacingRight=4;overflow=hidden;rotatable=0;points=[[0,0.5],[1,0.5]];portConstraint=eastwest;html=1;" vertex="1" parent="UZs3FFMXvQX2vYewNkwb-32">
          <mxGeometry y="26" width="160" height="64" as="geometry" />
        </mxCell>
        <mxCell id="UZs3FFMXvQX2vYewNkwb-34" value="" style="line;strokeWidth=1;fillColor=none;align=left;verticalAlign=middle;spacingTop=-1;spacingLeft=3;spacingRight=3;rotatable=0;labelPosition=right;points=[];portConstraint=eastwest;html=1;" vertex="1" parent="UZs3FFMXvQX2vYewNkwb-32">
          <mxGeometry y="90" width="160" height="8" as="geometry" />
        </mxCell>
        <mxCell id="UZs3FFMXvQX2vYewNkwb-35" value="+ constructor(_position)&lt;br&gt;+ update(): void&lt;br&gt;# draw(): void&lt;br&gt;- blowSteam(): void&lt;br&gt;- reset(): void" style="text;strokeColor=none;fillColor=none;align=left;verticalAlign=top;spacingLeft=4;spacingRight=4;overflow=hidden;rotatable=0;points=[[0,0.5],[1,0.5]];portConstraint=eastwest;html=1;" vertex="1" parent="UZs3FFMXvQX2vYewNkwb-32">
          <mxGeometry y="98" width="160" height="92" as="geometry" />
        </mxCell>
      </root>
    </mxGraphModel>
  </diagram>
</mxfile>
